/* XPM */
static char *_d6f78a27f344f8de535b04ce0966be9[] = {
/* columns rows colors chars-per-pixel */
"32 32 138 2 ",
"   c #6E6E71",
".  c #747478",
"X  c #757579",
"o  c #CC0000",
"O  c #CD0101",
"+  c #C90606",
"@  c #C80708",
"#  c #CF0E0E",
"$  c #EF2929",
"%  c #9D4F51",
"&  c #EC5050",
"*  c #F36868",
"=  c #204A87",
"-  c #325F9B",
";  c #34619C",
":  c #35629D",
">  c #36629D",
",  c #36639E",
"<  c #37649E",
"1  c #3B659D",
"2  c #38649F",
"3  c #38659F",
"4  c #39659F",
"5  c #3B669F",
"6  c #3C659E",
"7  c #3C669E",
"8  c #3D679F",
"9  c #3E679F",
"0  c #3A66A0",
"q  c #3B67A1",
"w  c #3D68A0",
"e  c #3D68A1",
"r  c #3F68A0",
"t  c #3C68A2",
"y  c #3D69A3",
"u  c #3D6AA3",
"i  c #3E6AA3",
"p  c #3F6AA3",
"a  c #3F6BA4",
"s  c #40689F",
"d  c #7D7D81",
"f  c #6C7C94",
"g  c #4169A0",
"h  c #4069A1",
"j  c #426AA1",
"k  c #406AA2",
"l  c #406BA3",
"z  c #416BA3",
"x  c #436BA2",
"c  c #426BA3",
"v  c #436CA2",
"b  c #456CA1",
"n  c #446DA3",
"m  c #466DA3",
"M  c #476EA3",
"N  c #406CA4",
"B  c #406CA5",
"V  c #436DA4",
"C  c #436EA5",
"Z  c #426EA6",
"A  c #436EA6",
"S  c #436FA7",
"D  c #446EA4",
"F  c #456EA4",
"G  c #476EA4",
"H  c #476FA5",
"J  c #486FA3",
"K  c #496FA3",
"L  c #486FA4",
"P  c #496FA4",
"I  c #4970A4",
"U  c #4870A5",
"Y  c #4970A5",
"T  c #4A70A4",
"R  c #4B71A4",
"E  c #4A70A5",
"W  c #4B71A5",
"Q  c #4871A6",
"!  c #4971A6",
"~  c #4A72A6",
"^  c #4B72A6",
"/  c #4A72A7",
"(  c #4C72A5",
")  c #4C72A6",
"_  c #4D73A6",
"`  c #4C73A7",
"'  c #4E74A7",
"]  c #4570A8",
"[  c #4672A9",
"{  c #4A72A8",
"}  c #4A73A8",
"|  c #4C73A8",
" . c #4D74A8",
".. c #4E74A8",
"X. c #4F75A8",
"o. c #808083",
"O. c #808084",
"+. c #818184",
"@. c #838384",
"#. c #868883",
"$. c #88888B",
"%. c #8B8B8B",
"&. c gray55",
"*. c #939590",
"=. c #999B96",
"-. c #969798",
";. c #979899",
":. c #9FA19B",
">. c #A5A7A1",
",. c #ABADA7",
"<. c #B1B3AD",
"1. c #B7B7B6",
"2. c #B7B7B7",
"3. c #B5B8B1",
"4. c #B9BCB5",
"5. c #BABEB6",
"6. c #BDBFB8",
"7. c #F69090",
"8. c #F7A6A6",
"9. c #BFC3BA",
"0. c #BFC5BA",
"q. c #C1C5BE",
"w. c #C5C8C2",
"e. c #C6C9C2",
"r. c #C9CBC6",
"t. c #CACCC7",
"y. c #CED1CB",
"u. c #D5D8D2",
"i. c #D8D9D5",
"p. c #D8DAD6",
"a. c #DDDFDB",
"s. c #DFE0DC",
"d. c #E4E4E1",
"f. c #E4E6E3",
"g. c #ECEEEB",
"h. c #F8F8F8",
"j. c gray100",
"k. c None",
/* pixels */
"k.k.k.k.k.k.k.k.k.k.k.k.k.k.k.k.k.k.k.k.k.k.k.k.k.k.k.k.k.k.k.k.",
"k.k.k.k.k.k.k.k.k.k.k.k.k.k.k.k.k.k.k.k.k.k.k.k.k.k.k.k.k.k.k.k.",
"k.k.k.k.k.k.k.k.k.k.$.+.o.o.o.o.o.o.o.o.o.o.o.o.o.o.o.o.+.$.k.k.",
"k.k.k.k.k.k.k.k.k.k.+.j.j.j.j.j.j.j.j.j.j.j.j.j.j.j.j.j.j.+.k.k.",
"k.k.k.k.k.k.k.k.k.k.o.j.= = = = = = = = = = = = = = = = j.o.k.k.",
"k.k.k.k.k.k.k.k.k.k.o.j.= 6 9 s h b P P Q P M M T M T = j.o.k.k.",
"k.k.k.k.k.k.k.k.k.k.o.j.= 6 9 h b b P P ) ) ) ( ( M M = j.o.k.k.",
"k.k.k.k.k.k.k.k.k.k.o.j.= 9 s h F F Q ) ) ' ' ' ' ) Q = j.o.k.k.",
"k.k.k.k.k.k.k.k.k.k.o.j.= 6 h b F Q Q ) ..X.Q l 6 > - = j.o.k.k.",
"k.k.$.+.o.o.o.o.o.o.o.o.o.o.o.o.o.o.+.o.+.f 0 1 1 > ; = j.o.k.k.",
"k.k.+.j.j.j.j.j.j.j.j.j.j.j.j.j.j.j.j.j.j.+.0 y 1 3 , = j.o.k.k.",
"k.k.o.j.= = = = = = = = = = = = = = = = j.o.Z y t 0 3 = j.o.k.k.",
"k.k.o.j.= 6 9 s h b M P P Q M M M M T = j.o.Z Z u 0 1 = j.o.k.k.",
"k.k.o.j.= 1 s h b b P Q ) ) ( ) ) M M = j.o.= = = = = = j.o.k.k.",
"k.k.o.j.= 6 h h F F P ) ) ' ' X.) ) ( = j.o.d.d.f.d.d.d.j.o.k.k.",
"k.k.o.j.= 6 h v F Q Q ..X.X.) h 6 > - = j.d j.j.j.j.j.j.j.+.k.k.",
"k.k.o.j.= 9 v b F Q ' ' Q y 0 1 1 ; ; = j.o.o.o.o.o.+.o.+.$.k.k.",
"k.k.o.j.= y a S Q } } S Z y y y 0 1 , = j.o.<.#.k.k.k.k.k.k.k.k.",
"k.k.o.j.= y y b F Z S S Z Z Z y t 0 3 = j.o.w.3.6.3.4.3.%.@.k.k.",
"k.k.o.j.= 1 t y Z Z ] ] ] ] Z y u t 3 = j.o.0.u.0.w.0.4.s.;.k.k.",
"k.k.o.j.= = = = = = = = = = = = = = = = j.o.3.3.9.3.4.3.p.2.k.k.",
"k.k.o.j.d.d.d.d.f.d.d.d.d.f.d.d.d.f.d.d.j.% # o o o o o o o + k.",
"k.k.+.j.j.j.j.j.j.j.j.j.j.j.j.j.j.j.j.j.j.@ & * * * * * * * & o ",
"k.k.$.+.o.o.o.o.o.o.o.d o.o.o.+.d +.o.o.+.o * $ $ $ $ $ $ $ * o ",
"k.k.k.k.k.k.k.k.#.*.=.:.>.,.<.#.k.k.k.k.k.o * $ j.7.$ 7.j.$ * o ",
"k.k.+.&.3.3.4.3.q.3.r.3.t.3.w.3.9.3.4.<.$.o * $ 7.j.8.j.7.$ * o ",
"k.k.-.s.4.0.q.y.0.a.0.g.0.d.0.u.0.w.q.9.s.o * $ $ 8.j.8.$ $ * o ",
"k.k.1.p.3.3.4.3.q.3.3.3.3.3.3.3.6.3.4.3.p.o * $ 7.j.8.j.7.$ * o ",
"k.d h.j.j.j.j.j.j.j.j.j.j.j.j.j.j.j.j.j.j.o * $ j.7.$ 7.j.$ * o ",
"k.  X X X X X X X X X X X X X X X X X X X o * $ $ $ $ $ $ $ * o ",
"k.k.k.k.k.k.k.k.k.k.k.k.k.k.k.k.k.k.k.k.k.o & * * * * * * * & o ",
"k.k.k.k.k.k.k.k.k.k.k.k.k.k.k.k.k.k.k.k.k.k.o o o o o o o o o k."
};
